<svg width="31" height="22" viewBox="0 0 31 22" fill="none" xmlns="http://www.w3.org/2000/svg">
<path d="M20.3738 11.5225L30.6939 17.9756V4.79694L20.3738 11.5225Z" fill="white"/>
<path d="M0.081665 4.79694V17.9756L10.4018 11.5225L0.081665 4.79694Z" fill="white"/>
<path d="M28.7806 0.959167H1.99493C1.04021 0.959167 0.282558 1.66314 0.139063 2.56959L15.3878 12.5066L30.6365 2.56959C30.493 1.66314 29.7354 0.959167 28.7806 0.959167Z" fill="white"/>
<path d="M18.6212 12.6655L15.9139 14.4292C15.7532 14.5333 15.5715 14.5844 15.3878 14.5844C15.2041 14.5844 15.0224 14.5333 14.8616 14.4292L12.1544 12.6636L0.14289 20.1783C0.290211 21.0772 1.04404 21.7755 1.99493 21.7755H28.7806C29.7315 21.7755 30.4854 21.0772 30.6327 20.1783L18.6212 12.6655Z" fill="white"/>
</svg>
