<svg width="31" height="31" viewBox="0 0 31 31" fill="none" xmlns="http://www.w3.org/2000/svg">
<path d="M29.7899 13.3149C29.7892 13.3141 29.7885 13.3134 29.7878 13.3127L17.2992 0.825843C16.7669 0.293342 16.0591 0 15.3063 0C14.5535 0 13.8458 0.293109 13.3132 0.82561L0.831097 13.3062C0.826893 13.3104 0.822689 13.3149 0.818484 13.3191C-0.274655 14.4184 -0.272786 16.202 0.823857 17.2986C1.32488 17.7998 1.9866 18.0901 2.69411 18.1204C2.72284 18.1232 2.7518 18.1246 2.781 18.1246H3.27875V27.3142C3.27875 29.1327 4.75846 30.6122 6.57755 30.6122H11.4635C11.9587 30.6122 12.3604 30.2108 12.3604 29.7154V22.5108C12.3604 21.6809 13.0355 21.006 13.8654 21.006H16.7472C17.5771 21.006 18.2522 21.6809 18.2522 22.5108V29.7154C18.2522 30.2108 18.6537 30.6122 19.1491 30.6122H24.0351C25.8542 30.6122 27.3339 29.1327 27.3339 27.3142V18.1246H27.7954C28.548 18.1246 29.2557 17.8315 29.7885 17.299C30.8863 16.2006 30.8868 14.414 29.7899 13.3149Z" fill="#E41613"/>
</svg>
