<svg width="176" height="175" viewBox="0 0 176 175" fill="none" xmlns="http://www.w3.org/2000/svg">
<rect x="0.92334" y="0.247986" width="174.277" height="174.277" rx="87.1383" fill="#FAFAFB"/>
<path opacity="0.7" fill-rule="evenodd" clip-rule="evenodd" d="M98.3013 76.4418C98.375 76.5707 98.504 76.6627 98.6698 76.6627C103.092 76.6627 106.703 80.2699 106.703 84.687V95.6191C106.703 100.036 103.092 103.643 98.6698 103.643H77.8867C73.4463 103.643 69.8535 100.036 69.8535 95.6191V84.687C69.8535 80.2699 73.4463 76.6627 77.8867 76.6627C78.0341 76.6627 78.1815 76.5891 78.2368 76.4418L78.3473 76.221C78.4109 76.0873 78.4761 75.9499 78.5423 75.8104C79.0136 74.8177 79.5351 73.7194 79.8582 73.0739C80.7057 71.4175 82.1428 70.4973 83.93 70.4789H92.6081C94.3953 70.4973 95.8509 71.4175 96.6984 73.0739C96.9886 73.6536 97.4307 74.5874 97.8568 75.4875C97.9448 75.6732 98.032 75.8575 98.1171 76.037L98.3013 76.4418ZM96.9562 83.5091C96.9562 84.4293 97.6932 85.1655 98.6145 85.1655C99.5357 85.1655 100.291 84.4293 100.291 83.5091C100.291 82.5889 99.5357 81.8343 98.6145 81.8343C97.6932 81.8343 96.9562 82.5889 96.9562 83.5091ZM85.0906 86.3617C85.9566 85.4967 87.0805 85.0366 88.2781 85.0366C89.4757 85.0366 90.5996 85.4967 91.4471 86.3433C92.2947 87.1899 92.7553 88.3126 92.7553 89.5089C92.7369 91.975 90.747 93.9811 88.2781 93.9811C87.0805 93.9811 85.9566 93.521 85.109 92.6744C84.2615 91.8278 83.8009 90.7051 83.8009 89.5089V89.4905C83.7824 88.331 84.243 87.2083 85.0906 86.3617ZM93.3817 94.6253C92.0735 95.932 90.2679 96.7418 88.278 96.7418C86.3434 96.7418 84.5378 95.9872 83.1559 94.6253C81.7925 93.245 81.0371 91.4414 81.0371 89.5089C81.0187 87.5948 81.7741 85.7912 83.1375 84.4109C84.5194 83.0306 86.3434 82.276 88.278 82.276C90.2126 82.276 92.0367 83.0306 93.4001 84.3925C94.7635 85.7728 95.519 87.5948 95.519 89.5089C95.5005 91.515 94.6898 93.3186 93.3817 94.6253Z" fill="#030229"/>
</svg>
