<svg width="221" height="89" viewBox="0 0 221 89" fill="none" xmlns="http://www.w3.org/2000/svg">
<path opacity="0.1" d="M138.767 7.04794C137.906 6.81244 137.049 6.82195 136.068 6.83282C135.823 6.83553 135.578 6.83825 135.333 6.84097C136.546 5.72485 137.759 4.60873 138.602 3.25167C138.843 2.88145 138.349 2.51937 138.107 2.76709C136.648 3.88593 135.314 5.12591 133.98 6.36589C133.962 4.77334 133.944 3.18079 133.927 1.58824C133.918 0.853213 132.816 0.865439 132.824 1.60046C132.841 3.19301 132.86 4.90807 132.878 6.50062C131.763 5.41031 130.649 4.4425 129.535 3.4747C129.041 3.11262 128.435 3.73193 128.93 4.09401C129.798 5.06453 130.667 6.03506 131.658 7.00422C130.433 7.0178 129.207 7.03139 127.983 7.16748C127.493 7.17291 127.501 7.90793 127.991 7.9025C129.463 8.0087 130.811 7.99376 132.159 7.97882C131.067 8.97108 129.976 10.0858 129.008 11.1992C128.524 11.6947 129.266 12.2991 129.752 11.9261C130.844 10.9339 131.937 10.0641 132.907 9.0732C132.922 10.4207 132.938 11.8908 133.198 13.2356C133.201 13.4806 133.691 13.4752 133.811 13.2288C134.042 12.0011 134.027 10.6535 134.012 9.30599C134.382 9.54692 134.632 9.91172 135.002 10.1526C135.744 10.757 136.486 11.3614 137.227 11.8433C137.475 12.0855 137.838 11.714 137.59 11.4717C136.969 10.7434 136.471 10.0138 135.85 9.28561C135.477 8.79967 134.983 8.43759 134.611 8.07416C135.224 8.06736 135.714 8.06193 136.327 8.05514C137.307 8.04427 138.042 8.03612 139.02 7.78025C139.141 7.65638 139.136 7.16637 138.767 7.04794Z" fill="#030229"/>
<path opacity="0.1" d="M12.0117 68.8693C11.1512 68.6338 10.2934 68.6433 9.31306 68.6542C9.06798 68.6569 8.8229 68.6596 8.57781 68.6623C9.79101 67.5462 11.0042 66.4301 11.8471 65.073C12.0881 64.7028 11.5938 64.3407 11.3515 64.5884C9.76928 65.5861 8.43626 66.9486 7.10188 68.1886C7.08423 66.596 7.06658 65.0035 7.04892 63.4109C7.04077 62.6759 5.9379 62.6881 5.94605 63.4232C5.9637 65.0157 5.98271 66.7308 6.00037 68.3233C4.88527 67.233 3.77154 66.2652 2.6578 65.2974C2.16356 64.9353 1.55764 65.5546 2.05188 65.9167C2.92054 66.8872 3.78919 67.8577 4.78038 68.8269C3.55497 68.8405 2.32955 68.8541 1.1055 68.9902C0.615332 68.9956 0.62348 69.7306 1.11365 69.7252C2.5855 69.8314 3.93346 69.8165 5.28141 69.8015C4.1894 70.7938 3.09875 71.9085 2.13064 73.0219C1.64591 73.5174 2.38795 74.1218 2.87404 73.7488C3.96605 72.7565 5.05942 71.8868 6.02888 70.8959C6.04382 72.2434 6.06012 73.7135 6.32014 75.0583C6.32285 75.3033 6.81302 75.2979 6.93285 75.0515C7.16435 73.8238 7.14941 72.4762 7.13447 71.1287C7.50481 71.3696 7.75397 71.7344 8.12431 71.9753C8.86635 72.5797 9.60839 73.1841 10.3491 73.6659C10.5969 73.9082 10.9604 73.5366 10.7126 73.2944C10.0918 72.5661 9.59345 71.8365 8.9726 71.1083C8.59954 70.6224 8.1053 70.2603 7.7336 69.8968C8.34631 69.8901 8.83648 69.8846 9.44918 69.8778C10.4295 69.867 11.1648 69.8588 12.1424 69.6029C12.2636 69.4791 12.2581 68.9891 12.0117 68.8693Z" fill="#030229"/>
<path d="M32.6421 28.3321C31.286 27.612 30.0524 26.8905 29.0585 25.6764C27.9407 24.3411 27.4329 22.7539 26.6799 21.1695C26.6799 21.1695 26.6786 21.047 26.5561 21.0484L26.4335 21.0497C26.4335 21.0497 26.4335 21.0497 26.3123 21.1736C26.3123 21.1736 26.3123 21.1736 26.3137 21.2961C25.9827 24.6078 24.0479 26.9571 21.6201 29.0668C21.4989 29.1907 21.5016 29.4357 21.6255 29.5569C24.335 30.752 26.2098 34.0392 27.0975 36.7248C27.2228 36.9685 27.5904 36.9644 27.7102 36.718C28.1827 35.12 28.534 33.6459 29.3755 32.1664C30.217 30.6868 31.3077 29.572 32.6461 28.6996C32.7673 28.5757 32.7646 28.3307 32.6421 28.3321Z" fill="#E41613"/>
<path d="M219.895 65.0813C218.539 64.3613 217.305 63.6398 216.434 62.4243C215.316 61.089 214.808 59.5018 214.055 57.9174C214.055 57.9174 214.054 57.7949 213.932 57.7963L213.809 57.7977C213.809 57.7977 213.809 57.7977 213.688 57.9215C213.688 57.9215 213.688 57.9215 213.689 58.044C213.358 61.3557 211.423 63.705 208.996 65.8148C208.874 65.9386 208.877 66.1836 209.001 66.3048C211.711 67.4999 213.585 70.7872 214.473 73.4727C214.598 73.7164 214.966 73.7123 215.086 73.4659C215.558 71.868 215.91 70.3938 216.751 68.9143C217.593 67.4347 218.683 66.32 220.022 65.4475C220.022 65.4475 220.019 65.2025 219.895 65.0813Z" fill="#E41613"/>
<path d="M130.095 34.9569C129.109 34.4778 128.368 33.9959 127.624 33.1465C126.877 32.1747 126.498 31.0762 125.873 29.9805C125.873 29.9805 125.873 29.9805 125.75 29.9818L125.628 29.9832C125.628 29.9832 125.628 29.9832 125.629 30.1057C125.41 32.436 124.079 34.0435 122.38 35.5325C122.259 35.6564 122.26 35.7789 122.383 35.7775C124.353 36.6133 125.604 38.9273 126.237 40.7581C126.24 41.0031 126.608 40.999 126.605 40.754C126.838 39.6488 127.193 38.5422 127.795 37.5553C128.397 36.5685 129.124 35.8253 130.097 35.2019C130.22 35.2006 130.217 34.9556 130.095 34.9569Z" fill="#E41613"/>
<path d="M98.8385 56.8048C97.1135 55.9663 95.756 55.1237 94.6368 53.6659C93.2698 51.9658 92.6368 50.135 91.7573 48.1845C91.7573 48.1845 91.7559 48.062 91.6334 48.0633L91.5108 48.0647C91.5108 48.0647 91.3883 48.066 91.3896 48.1885L91.391 48.3111C90.9443 52.2366 88.6486 55.2025 85.7348 57.6852C85.6136 57.8091 85.6176 58.1766 85.8627 58.1739C89.1876 59.6072 91.4368 63.5029 92.4538 66.7996C92.5804 67.1658 93.0706 67.1604 93.1891 66.7915C93.6589 64.9485 94.2512 63.1042 95.2125 61.3782C96.1739 59.6523 97.5069 58.2898 99.2116 57.2908C98.9665 57.2935 99.085 56.9246 98.8385 56.8048Z" fill="#E41613"/>
<path d="M69.4521 25.9502C67.7093 23.5191 65.9679 21.2106 63.7405 19.2749C62.5042 18.3085 61.2679 17.342 59.9118 16.622C59.1725 16.2626 58.4345 16.0257 57.6952 15.6664C57.3262 15.548 56.9572 15.4295 56.5869 15.1886C56.2179 15.0702 55.9701 14.8279 55.6038 14.9545C55.3587 14.9572 55.2376 15.081 55.3628 15.3247C55.4922 15.9358 56.2315 16.2952 56.7257 16.6573C57.3439 17.1405 57.9606 17.5012 58.5788 17.9845C59.8137 18.8284 61.05 19.7948 62.1637 20.7626C64.2686 22.6996 66.0073 24.7632 67.6262 27.0731C68.3736 28.1675 70.2009 27.1671 69.4521 25.9502Z" fill="#FF8F6B"/>
<path d="M176.16 55.6422C176.283 55.6408 176.281 55.5183 176.159 55.5197C176.036 55.521 176.038 55.6435 176.16 55.6422Z" fill="#3F3937"/>
<path d="M71.2259 48.4872C69.4831 46.0562 67.257 44.2431 64.67 43.0465C63.3153 42.449 61.9619 41.9739 60.6112 41.7438C59.3831 41.5124 57.5436 41.4103 56.4475 42.035C56.2038 42.1602 56.2079 42.5277 56.4557 42.77C57.4428 43.3717 58.9147 43.4779 60.0203 43.7107C61.3723 44.0633 62.4792 44.4185 63.7114 45.0175C66.0519 46.0942 68.2753 47.6623 69.8901 49.6047C70.511 50.3329 71.8481 49.338 71.2259 48.4872Z" fill="#FF8F6B"/>
<path d="M43.2547 57.0061C44.3549 56.7489 45.5789 56.6128 46.6818 56.6006C47.2945 56.5938 47.9072 56.587 48.5199 56.5802C48.8875 56.5761 49.2552 56.5721 49.4989 56.4469C49.7426 56.3216 49.9877 56.3189 50.2314 56.1937C50.4751 56.0685 50.4711 55.701 50.2246 55.5812C49.9782 55.4614 49.7317 55.3416 49.6078 55.2205C49.3614 55.1007 48.8712 55.1061 48.6248 54.9863C48.0121 54.9931 47.3994 54.9999 46.6655 55.1305C45.4414 55.2666 44.2187 55.5252 42.9974 55.9063C42.2635 56.037 42.5208 57.1368 43.2547 57.0061Z" fill="#FF8F6B"/>
<path d="M173.802 86.1754C177.211 84.0548 180.868 82.299 184.777 81.153C186.61 80.6426 188.565 80.1309 190.523 79.8641C191.624 79.7294 192.603 79.5961 193.705 79.4613C194.563 79.4518 195.42 79.4423 196.151 79.0666C196.395 78.9414 196.391 78.5739 196.145 78.4541C195.283 78.0961 194.426 78.2281 193.446 78.239C192.343 78.2512 191.364 78.3846 190.261 78.3968C188.18 78.5424 186.1 78.933 184.023 79.4461C179.867 80.4723 176.211 82.3507 172.81 85.0838C172.325 85.5792 173.071 86.5511 173.802 86.1754Z" fill="#FF8F6B"/>
<path d="M166.999 80.4925C169.906 77.3973 173.681 75.2726 177.335 73.1493C179.162 72.1489 181.11 71.0246 183.061 70.1453C184.159 69.6431 185.134 69.1422 186.109 68.6413C187.084 68.1404 188.184 67.8832 189.157 67.2598C189.401 67.1346 189.397 66.7671 189.028 66.6487C188.045 66.4145 186.946 66.7943 185.967 66.9276C184.743 67.0637 183.644 67.4435 182.547 67.9457C180.352 68.9502 178.158 70.0772 176.089 71.3253C172.069 73.5752 168.542 75.9422 165.764 79.6485C165.28 80.2665 166.391 80.9893 166.999 80.4925Z" fill="#FF8F6B"/>
<path d="M146.87 22.5191C146.743 22.1529 146.739 21.7854 146.611 21.2968C146.608 21.0518 146.484 20.9306 146.483 20.8081C146.482 20.6856 146.48 20.5631 146.356 20.442C146.355 20.3195 146.232 20.3208 146.231 20.1983C146.107 20.0772 145.983 19.956 145.861 19.9574C145.738 19.9587 145.617 20.0826 145.496 20.2065C145.497 20.329 145.375 20.3303 145.376 20.4528C145.377 20.5753 145.379 20.6978 145.38 20.8203C145.383 21.0654 145.386 21.3104 145.511 21.554C145.515 21.9215 145.641 22.2877 145.768 22.6538L145.767 22.5313L145.768 22.6538C145.769 22.7763 145.895 23.02 146.019 23.1411C146.143 23.2623 146.389 23.3821 146.51 23.2582C146.633 23.2568 146.876 23.1316 146.875 23.0091C146.875 23.0091 146.872 22.7641 146.87 22.5191Z" fill="#030229"/>
<path d="M151.967 40.1054C152.054 36.9189 153.003 34.0905 154.073 31.1382C154.67 29.6613 155.268 28.307 155.988 26.9513C156.708 25.5956 157.431 24.4849 157.783 23.0108C157.78 22.7658 157.531 22.401 157.288 22.6487C156.681 23.1455 156.317 23.5171 155.834 24.1351C155.473 24.7517 155.114 25.4908 154.753 26.1073C154.034 27.5855 153.315 29.0637 152.72 30.6631C151.65 33.6154 151.074 36.9298 150.986 40.1163C151.116 40.7274 151.974 40.7179 151.967 40.1054Z" fill="#FF8F6B"/>
<path d="M162.277 19.4079C162.397 19.1615 162.518 19.0377 162.638 18.7913C162.638 18.7913 162.639 18.9138 162.517 18.9152C162.517 18.9152 162.516 18.7927 162.638 18.7913L162.759 18.6675C162.88 18.5436 162.88 18.5436 163.002 18.4197C163.243 18.0495 163.608 17.8004 163.849 17.4302C164.09 17.06 164.455 16.8109 164.696 16.4407C164.815 16.1943 165.059 16.0691 165.179 15.8227C165.178 15.7002 165.3 15.6988 165.299 15.5763C165.42 15.4525 165.419 15.33 165.417 15.2075C165.537 14.9611 165.288 14.5963 164.92 14.6004C164.798 14.6017 164.675 14.6031 164.43 14.6058C164.308 14.6072 164.309 14.7297 164.186 14.731C164.186 14.731 164.186 14.731 164.064 14.7324C164.186 14.731 164.186 14.731 164.064 14.7324C163.819 14.7351 163.576 14.9828 163.333 15.108C162.845 15.3585 162.482 15.7301 162.118 16.1017C161.755 16.4733 161.391 16.8448 161.151 17.3376C160.91 17.7078 160.548 18.2019 160.43 18.5708C160.189 18.941 160.318 19.5522 160.811 19.7917C161.547 19.9061 162.036 19.7781 162.277 19.4079Z" fill="#FF8F6B"/>
<path d="M158.242 42.3636C158.599 41.3795 159.08 40.5166 159.436 39.5325C159.793 38.5483 160.151 37.6867 160.631 36.7013C161.111 35.8383 161.468 34.8542 161.949 33.9912C162.429 33.1283 163.155 32.2626 163.267 31.2812C163.263 30.9137 162.894 30.7953 162.649 30.798C161.671 31.0539 161.193 32.1618 160.588 32.9037C159.863 33.7693 159.383 34.7548 158.904 35.7403C158.425 36.7257 158.068 37.7098 157.713 38.8164C157.596 39.3078 157.356 39.8006 157.363 40.4131C157.246 40.9044 157.252 41.517 157.258 42.007C157.142 42.6209 158.003 42.8564 158.242 42.3636Z" fill="#FF8F6B"/>
<path d="M164.957 28.9347C165.195 28.3194 165.557 27.8253 165.919 27.3312C166.401 26.5908 166.637 25.7305 167.12 25.1126C167.604 24.4946 168.214 24.2428 168.821 23.746C169.428 23.2492 170.035 22.7524 170.641 22.1331C172.945 19.9022 175.619 17.9123 178.42 16.2885C179.151 15.9128 179.883 15.5371 180.614 15.1615C181.101 14.911 181.831 14.4129 181.457 13.8044C180.83 12.5862 178.397 14.2059 177.666 14.5816C174.865 16.2054 172.563 18.5587 170.012 20.6698C169.283 21.168 168.677 21.7873 168.071 22.4066C167.465 23.0259 166.984 23.8889 166.378 24.5082C165.772 25.1275 165.041 25.5032 164.435 26.1225C163.95 26.618 163.591 27.3571 163.354 28.0948C162.875 29.0803 164.356 30.044 164.957 28.9347Z" fill="#FF8F6B"/>
<path opacity="0.5" d="M106.944 36.0713C107.423 35.0858 107.532 33.8594 107.398 32.7582C107.384 31.5332 107.248 30.3095 106.991 29.2097C106.988 28.9647 106.498 28.9701 106.5 29.2151C106.39 30.319 106.402 31.4216 106.416 32.6466C106.427 33.6266 106.439 34.7292 106.081 35.5908C105.843 36.206 106.706 36.6865 106.944 36.0713Z" fill="#EF37FF"/>
<g opacity="0.5">
<path d="M107.013 20.143C107 19.0405 107.111 17.9366 106.977 16.9579C106.842 15.8568 106.464 14.8808 105.84 13.9076C105.715 13.6639 105.226 13.7918 105.353 14.158C105.865 16.1126 105.888 18.1952 105.911 20.2778C105.795 20.8916 107.021 20.8781 107.013 20.143Z" fill="#EF37FF"/>
</g>
<path opacity="0.5" d="M101.504 9.66741C101.248 8.69009 100.869 7.71414 100.37 6.86204C100.121 6.49725 99.9926 6.00859 99.7435 5.6438C99.4943 5.279 99.2411 4.54669 98.7509 4.55213C98.5058 4.55484 98.2607 4.55756 98.1409 4.80393C97.9013 5.29666 98.2743 5.7826 98.5248 6.2699C98.774 6.63469 99.0245 7.12199 99.1511 7.48815C99.6508 8.34024 100.028 9.19369 100.283 10.0485C100.536 10.7808 101.757 10.3997 101.504 9.66741Z" fill="#EF37FF"/>
<path opacity="0.5" d="M107.122 7.88987C107.356 6.90712 107.466 5.80323 107.577 4.69933C107.571 4.20932 107.565 3.5968 107.559 3.10678C107.554 2.61677 107.547 2.00425 107.296 1.51695C107.17 1.15079 106.68 1.15623 106.561 1.5251C106.321 2.01783 106.328 2.63035 106.334 3.12037C106.339 3.61038 106.345 4.1004 106.35 4.59041C106.361 5.57045 106.249 6.55184 106.137 7.53323C106.14 7.77823 106.267 8.14439 106.512 8.14167C106.76 8.38396 107.126 8.25738 107.122 7.88987Z" fill="#EF37FF"/>
<path opacity="0.5" d="M111.818 11.3909C112.049 10.1631 112.527 9.05517 113.129 8.06834C113.731 7.08152 114.579 6.21448 115.303 5.2263C115.423 4.97993 115.297 4.61378 115.053 4.739C113.709 5.12145 112.741 6.23486 112.14 7.34419C111.417 8.45487 111.065 9.80649 110.833 11.0342C110.596 11.772 111.703 12.1273 111.818 11.3909Z" fill="#EF37FF"/>
<path d="M192.871 59.5C192.992 59.3761 192.99 59.2536 193.112 59.1298C193.231 58.8834 193.351 58.6371 193.349 58.392C193.346 58.147 193.344 58.0245 193.464 57.7782L193.463 57.6557C193.462 57.5332 193.46 57.4107 193.459 57.2881C193.456 57.0431 193.453 56.7981 193.328 56.5545C193.325 56.3095 193.202 56.1883 193.078 56.0672C192.827 55.5799 192.333 55.2178 191.719 55.1021C191.965 55.2219 192.212 55.3417 192.46 55.584C192.212 55.3417 191.965 55.2219 191.72 55.2246C191.474 55.1048 191.229 55.1075 191.107 55.2314C190.862 55.2341 190.741 55.358 190.498 55.4832C190.254 55.6084 190.011 55.8561 189.892 56.1025C190.256 55.8534 190.499 55.6057 190.864 55.3566C190.741 55.358 190.62 55.4818 190.498 55.4832C190.254 55.6084 190.01 55.7336 189.889 55.8575C189.768 55.9814 189.646 56.1052 189.525 56.2291C189.527 56.3516 189.404 56.3529 189.405 56.4754C189.407 56.5979 189.286 56.7218 189.287 56.8443C189.408 56.7205 189.405 56.4754 189.527 56.3516C189.528 56.4741 189.405 56.4754 189.407 56.598C189.408 56.7205 189.286 56.7218 189.287 56.8443C189.166 56.9682 189.169 57.2132 189.047 57.337C188.928 57.5834 188.808 57.8298 188.812 58.1973C188.692 58.4437 188.819 58.8098 188.821 59.0548C188.947 59.2985 189.072 59.5421 189.197 59.7858C189.322 60.0294 189.57 60.2717 189.817 60.3915C189.94 60.5126 190.186 60.5099 190.309 60.6311C190.678 60.7495 191.169 60.7441 191.535 60.6175C191.656 60.4936 191.901 60.4909 192.022 60.367C192.51 60.1166 192.751 59.7464 192.871 59.5Z" fill="#FF8F6B"/>
<path d="M187.988 17.04C187.987 16.9175 187.864 16.9189 187.863 16.7964C187.739 16.6752 187.615 16.5541 187.614 16.4316C187.614 16.4316 187.49 16.3104 187.367 16.3118C187.121 16.192 187.119 16.0695 186.75 15.9511C186.628 15.9524 186.381 15.8326 186.259 15.834C186.136 15.8354 185.891 15.8381 185.891 15.8381L185.525 15.9646C185.281 16.0899 185.16 16.2137 185.04 16.4601C184.919 16.584 184.919 16.584 184.92 16.7065C184.922 16.829 184.799 16.8303 184.801 16.9528C184.681 17.1992 184.562 17.5681 184.566 17.9356C184.57 18.3031 184.696 18.5467 184.822 18.9129C185.197 19.5213 185.813 19.8821 186.426 19.8753C187.039 19.8685 187.77 19.4928 188.008 18.8776C188.128 18.6312 188.247 18.2623 188.243 17.8948C188.24 17.6498 188.115 17.4062 187.988 17.04Z" fill="#FF8F6B"/>
<path d="M97.8378 32.7417C96.8208 29.4449 97.2716 25.8869 97.8476 22.5725C97.8449 22.3275 97.5985 22.2077 97.4787 22.4541C96.2899 25.7752 95.9644 29.5769 96.9827 32.9962C96.9895 33.6087 97.9671 33.3528 97.8378 32.7417Z" fill="#030229"/>
</svg>
