<svg width="31" height="31" viewBox="0 0 31 31" fill="none" xmlns="http://www.w3.org/2000/svg">
<path d="M5.718 14.5063H7.76673V16.5551H5.718V14.5063Z" fill="white"/>
<path d="M0.081665 27.5385C0.081665 29.3572 1.56122 30.8367 3.3799 30.8367H27.3954C29.2144 30.8367 30.6939 29.3572 30.6939 27.5385V9.70336H0.081665V27.5385ZM12.506 12.7127H25.9547C26.4498 12.7127 26.8515 13.1142 26.8515 13.6096C26.8515 14.1047 26.4498 14.5064 25.9547 14.5064H12.506C12.0106 14.5064 11.6091 14.1047 11.6091 13.6096C11.6091 13.1142 12.0106 12.7127 12.506 12.7127ZM12.506 16.5551H25.9547C26.4498 16.5551 26.8515 16.9566 26.8515 17.452C26.8515 17.9474 26.4498 18.3488 25.9547 18.3488H12.506C12.0106 18.3488 11.6091 17.9474 11.6091 17.452C11.6091 16.9566 12.0106 16.5551 12.506 16.5551ZM3.92431 13.6096C3.92431 13.1142 4.32579 12.7127 4.82115 12.7127H8.66357C9.15893 12.7127 9.56041 13.1142 9.56041 13.6096V17.452C9.56041 17.9474 9.15893 18.3488 8.66357 18.3488H4.82115C4.32579 18.3488 3.92431 17.9474 3.92431 17.452V13.6096ZM4.82115 20.3976H25.9547C26.4498 20.3976 26.8515 20.799 26.8515 21.2944C26.8515 21.7898 26.4498 22.1913 25.9547 22.1913H4.82115C4.32579 22.1913 3.92431 21.7898 3.92431 21.2944C3.92431 20.799 4.32555 20.3976 4.82115 20.3976ZM4.82115 24.2402H25.9547C26.4498 24.2402 26.8515 24.6417 26.8515 25.1371C26.8515 25.6322 26.4498 26.0339 25.9547 26.0339H4.82115C4.32579 26.0339 3.92431 25.6322 3.92431 25.1371C3.92431 24.6417 4.32555 24.2402 4.82115 24.2402Z" fill="white"/>
<path d="M27.3954 0.224487H3.3799C1.56122 0.224487 0.081665 1.70405 0.081665 3.52274V7.90935H30.6939V3.52274C30.6939 1.70405 29.2144 0.224487 27.3954 0.224487ZM22.112 5.86061H8.66333C8.1682 5.86061 7.76649 5.45913 7.76649 4.96377C7.76649 4.4684 8.1682 4.06692 8.66333 4.06692H22.112C22.6074 4.06692 23.0089 4.4684 23.0089 4.96377C23.0089 5.45913 22.6074 5.86061 22.112 5.86061Z" fill="white"/>
</svg>
