<svg width="31" height="29" viewBox="0 0 31 29" fill="none" xmlns="http://www.w3.org/2000/svg">
<path d="M26.5213 14.2081C25.0599 15.4313 23.1887 16.1671 21.1516 16.1671C20.4465 16.1671 19.7613 16.0789 19.1062 15.9131C20.2777 17.7248 20.9604 19.8904 20.9604 22.2152V25.6297C20.9604 26.9067 20.5012 28.0764 19.7431 28.9796H27.3957C29.2144 28.9796 30.6939 27.477 30.6939 25.6297V22.2152C30.6939 18.892 29.0383 15.9546 26.5213 14.2081Z" fill="white"/>
<path d="M9.62422 14.3454C13.2968 14.3454 16.2847 11.3109 16.2847 7.581C16.2847 3.85082 13.2968 0.816345 9.62422 0.816345C5.95159 0.816345 2.96375 3.85082 2.96375 7.581C2.96375 11.3109 5.95159 14.3454 9.62422 14.3454Z" fill="white"/>
<path d="M21.1513 14.3454C24.8239 14.3454 27.812 11.3109 27.812 7.581C27.812 3.85082 24.8239 0.816345 21.1513 0.816345C19.3747 0.816345 17.7585 1.52652 16.5629 2.68191C17.5175 4.07236 18.0782 5.76121 18.0782 7.581C18.0782 9.40055 17.5175 11.0894 16.5629 12.4799C17.7585 13.6352 19.3747 14.3454 21.1513 14.3454Z" fill="white"/>
<path d="M14.9938 14.2081C13.5327 15.4313 11.6615 16.1671 9.62418 16.1671C7.58689 16.1671 5.71567 15.4316 4.25432 14.2081C1.73732 15.9546 0.081665 18.892 0.081665 22.2152V25.6297C0.081665 27.477 1.56122 28.9796 3.38014 28.9796H15.868C17.6869 28.9796 19.1665 27.477 19.1665 25.6297V22.2152C19.1665 18.892 17.511 15.9546 14.9938 14.2081Z" fill="white"/>
</svg>
