<svg width="50" height="50" viewBox="0 0 50 50" fill="none" xmlns="http://www.w3.org/2000/svg">
<rect x="0.5" y="0.5" width="49" height="49" rx="24.5" fill="#F5F5F5" stroke="#E5E5E5"/>
<path d="M20 21C20 19.6739 20.5268 18.4021 21.4645 17.4645C22.4021 16.5268 23.6739 16 25 16C26.3261 16 27.5979 16.5268 28.5355 17.4645C29.4732 18.4021 30 19.6739 30 21C30 22.3261 29.4732 23.5979 28.5355 24.5355C27.5979 25.4732 26.3261 26 25 26C23.6739 26 22.4021 25.4732 21.4645 24.5355C20.5268 23.5979 20 22.3261 20 21ZM25 24C25.7956 24 26.5587 23.6839 27.1213 23.1213C27.6839 22.5587 28 21.7956 28 21C28 20.2044 27.6839 19.4413 27.1213 18.8787C26.5587 18.3161 25.7956 18 25 18C24.2044 18 23.4413 18.3161 22.8787 18.8787C22.3161 19.4413 22 20.2044 22 21C22 21.7956 22.3161 22.5587 22.8787 23.1213C23.4413 23.6839 24.2044 24 25 24Z" fill="#E41613"/>
<path d="M19.343 29.343C18.6001 30.0859 18.0109 30.9678 17.6089 31.9385C17.2069 32.9091 17 33.9494 17 35H19C19 33.4087 19.6321 31.8826 20.7574 30.7573C21.8826 29.6321 23.4087 29 25 29C26.5913 29 28.1174 29.6321 29.2426 30.7573C30.3679 31.8826 31 33.4087 31 35H33C33.0001 33.4177 32.5309 31.8709 31.6518 30.5553C30.7728 29.2396 29.5234 28.2142 28.0615 27.6087C26.5997 27.0032 24.9911 26.8447 23.4392 27.1534C21.8873 27.4621 20.4618 28.2241 19.343 29.343Z" fill="#E41613"/>
</svg>
