<svg width="38" height="38" viewBox="0 0 38 38" fill="none" xmlns="http://www.w3.org/2000/svg">
<path d="M17.3926 38C20.2602 38 22.659 35.9558 23.2098 33.25H11.5754C12.1266 35.9558 14.5253 38 17.3926 38Z" fill="#979797"/>
<path d="M32.6779 29.3693L32.6779 29.369C32.8522 28.5293 32.5555 27.6932 31.9011 27.1431C31.901 27.1429 31.9009 27.1428 31.9007 27.1427L32.2224 26.7599C30.0485 24.9375 28.7401 22.3074 28.5223 19.498L32.6779 29.3693ZM32.6779 29.3693C32.4604 30.4198 31.4278 31.1667 30.2733 31.1667H4.50456C3.40401 31.1667 2.40702 30.4895 2.14024 29.5048L32.6779 29.3693ZM16.8928 7.91675C16.8928 14.1518 21.8446 19.251 28.0204 19.4911L2.14019 29.5046C1.90309 28.6275 2.19572 27.7338 2.85239 27.1724C5.37201 25.0417 6.80958 21.9449 6.80958 18.6643V14.25C6.80958 8.40483 11.5479 3.66675 17.3928 3.66675C17.499 3.66675 17.6051 3.66867 17.711 3.67228C17.1876 4.98625 16.8928 6.41611 16.8928 7.91675Z" fill="#979797" stroke="#979797"/>
<path d="M36.2727 7.77287C36.2727 12.0656 32.7929 15.5455 28.4999 15.5455C24.2071 15.5455 20.7273 12.0656 20.7273 7.77287C20.7273 3.4801 24.2071 0 28.4999 0C32.7929 0 36.2727 3.4801 36.2727 7.77287Z" fill="#E41613"/>
</svg>
