<svg width="92" height="92" viewBox="0 0 92 92" fill="none" xmlns="http://www.w3.org/2000/svg">
<rect opacity="0.2" x="0.869659" y="0.408234" width="90.8748" height="90.8748" rx="45.4374" fill="#FFD66B"/>
<path fill-rule="evenodd" clip-rule="evenodd" d="M51.0992 35.3685C51.5764 35.3751 52.0548 35.3816 52.5348 35.3866C57.6924 35.3866 61.4529 39.0636 61.4529 44.1414V50.6637C61.4529 55.7415 57.6924 59.4185 52.5348 59.4185C50.4688 59.4622 48.4028 59.4768 46.3219 59.4768C44.241 59.4768 42.1453 59.4622 40.0793 59.4185C34.9217 59.4185 31.1613 55.7415 31.1613 50.6637V44.1414C31.1613 39.0636 34.9217 35.3866 40.0942 35.3866C42.0413 35.3574 44.033 35.3282 46.0544 35.3282V35.0801C46.0544 34.0733 45.2072 33.2562 44.1965 33.2562H42.725C41.0454 33.2562 39.678 31.9138 39.678 30.2796C39.678 29.6813 40.1833 29.1852 40.7927 29.1852C41.417 29.1852 41.9075 29.6813 41.9075 30.2796C41.9075 30.7173 42.2791 31.0675 42.725 31.0675H44.1965C46.4408 31.0821 48.269 32.8768 48.2839 35.0655V35.3428C49.2209 35.3428 50.1579 35.3556 51.0992 35.3685ZM44.568 48.4896H43.0074V50.0362C43.0074 50.6345 42.502 51.1306 41.8926 51.1306C41.2684 51.1306 40.7779 50.6345 40.7779 50.0362V48.4896H39.2024C38.593 48.4896 38.0876 48.0081 38.0876 47.3952C38.0876 46.797 38.593 46.3009 39.2024 46.3009H40.7779V44.7688C40.7779 44.1705 41.2684 43.6744 41.8926 43.6744C42.502 43.6744 43.0074 44.1705 43.0074 44.7688V46.3009H44.568C45.1774 46.3009 45.6828 46.797 45.6828 47.3952C45.6828 48.0081 45.1774 48.4896 44.568 48.4896ZM50.885 46.0236H51.0336C51.643 46.0236 52.1484 45.5421 52.1484 44.9293C52.1484 44.331 51.643 43.8349 51.0336 43.8349H50.885C50.2607 43.8349 49.7702 44.331 49.7702 44.9293C49.7702 45.5421 50.2607 46.0236 50.885 46.0236ZM53.4266 51.043H53.5753C54.1847 51.043 54.69 50.5615 54.69 49.9487C54.69 49.3505 54.1847 48.8544 53.5753 48.8544H53.4266C52.8009 48.8544 52.3119 49.3505 52.3119 49.9487C52.3119 50.5615 52.8009 51.043 53.4266 51.043Z" fill="#FFC327"/>
</svg>
