<svg width="31" height="31" viewBox="0 0 31 31" fill="none" xmlns="http://www.w3.org/2000/svg">
<path d="M29.3024 11.1317H27.1978C27.0505 10.7154 26.8809 10.3068 26.6897 9.90761L28.1786 8.41874C28.722 7.87542 28.722 6.99434 28.1787 6.45093L24.2431 2.51531C23.982 2.25436 23.6281 2.1077 23.2591 2.1077C22.8901 2.1077 22.5362 2.25427 22.2753 2.51531L20.7863 4.00417C20.387 3.81308 19.9785 3.64351 19.5622 3.4962V1.39147C19.5622 0.623006 18.9392 0 18.1707 0H12.6049C11.8364 0 11.2134 0.623006 11.2134 1.39147V3.4962C10.7971 3.64351 10.3884 3.81308 9.98937 4.00417L8.5004 2.51531C7.95708 1.97189 7.07601 1.97189 6.53259 2.51531L2.59688 6.45084C2.33584 6.71178 2.18927 7.06568 2.18927 7.43479C2.18927 7.8038 2.33584 8.1577 2.59688 8.41865L4.08575 9.90761C3.89465 10.3068 3.72517 10.7154 3.57786 11.1317H1.47313C0.704671 11.1317 0.081665 11.7547 0.081665 12.5232V18.0891C0.081665 18.8575 0.704671 19.4805 1.47313 19.4805H3.57786C3.72517 19.8968 3.89465 20.3055 4.08575 20.7046L2.59688 22.1936C2.33584 22.4545 2.18927 22.8084 2.18927 23.1775C2.18927 23.5466 2.33584 23.9005 2.59688 24.1614L6.53269 28.097C7.0761 28.6404 7.95708 28.6404 8.5005 28.097L9.98946 26.6082C10.3885 26.7993 10.7972 26.9688 11.2134 27.1161V29.2208C11.2134 29.9892 11.8364 30.6122 12.6049 30.6122H18.1707C18.9392 30.6122 19.5622 29.9892 19.5622 29.2208V27.116C19.9785 26.9687 20.3871 26.7992 20.7863 26.6081L22.2753 28.0969C22.8187 28.6403 23.6997 28.6404 24.2431 28.0969L28.1787 24.1613C28.7221 23.6179 28.7221 22.7369 28.1787 22.1935L26.6898 20.7046C26.881 20.3055 27.0506 19.8968 27.1979 19.4805H29.3024C30.0709 19.4805 30.6939 18.8575 30.6939 18.0891V12.5232C30.6939 11.7547 30.0709 11.1317 29.3024 11.1317ZM15.3878 20.872C12.3188 20.872 9.82193 18.3751 9.82193 15.3061C9.82193 12.2371 12.3188 9.74026 15.3878 9.74026C18.4568 9.74026 20.9537 12.2371 20.9537 15.3061C20.9537 18.3751 18.4568 20.872 15.3878 20.872Z" fill="white"/>
</svg>
