<svg width="15" height="14" viewBox="0 0 15 14" fill="none" xmlns="http://www.w3.org/2000/svg">
<path opacity="0.4" d="M11.7602 8.63097C11.5741 8.80822 11.4886 9.06458 11.531 9.31598L12.1699 12.7905C12.2239 13.085 12.0973 13.383 11.8465 13.5532C11.6007 13.7297 11.2736 13.7509 11.0055 13.6097L7.82214 11.9784C7.71145 11.9204 7.58854 11.8894 7.46276 11.8858H7.26797C7.20041 11.8957 7.13428 11.9169 7.0739 11.9494L3.88978 13.5885C3.73237 13.6662 3.55412 13.6937 3.37946 13.6662C2.95395 13.5871 2.67004 13.1888 2.73976 12.7686L3.37946 9.29409C3.42186 9.04056 3.33633 8.7828 3.15017 8.60272L0.554713 6.13102C0.337646 5.92411 0.262176 5.61338 0.361365 5.33302C0.45768 5.05336 0.703497 4.84927 1.00035 4.80337L4.57261 4.2942C4.8443 4.26666 5.08293 4.10423 5.20512 3.86412L6.77921 0.693287C6.81659 0.622667 6.86474 0.557697 6.92296 0.502613L6.98765 0.453179C7.02143 0.416457 7.06025 0.38609 7.10337 0.361373L7.18172 0.333125L7.30391 0.283691H7.60651C7.87676 0.311233 8.11468 0.470128 8.23902 0.707411L9.83396 3.86412C9.94896 4.09505 10.1725 4.25536 10.4305 4.2942L14.0028 4.80337C14.3047 4.84574 14.557 5.05054 14.6569 5.33302C14.751 5.6162 14.6698 5.92693 14.4484 6.13102L11.7602 8.63097Z" fill="#FFD66B"/>
</svg>
