<svg width="15" height="14" viewBox="0 0 15 14" fill="none" xmlns="http://www.w3.org/2000/svg">
<path d="M11.5838 8.631C11.3976 8.80826 11.3121 9.06461 11.3545 9.31601L11.9935 12.7905C12.0474 13.085 11.9209 13.383 11.67 13.5532C11.4242 13.7298 11.0972 13.7509 10.8291 13.6097L7.64569 11.9784C7.535 11.9205 7.41209 11.8894 7.2863 11.8859H7.09152C7.02395 11.8958 6.95783 11.9169 6.89745 11.9494L3.71333 13.5885C3.55592 13.6662 3.37766 13.6937 3.203 13.6662C2.7775 13.5871 2.49358 13.1888 2.5633 12.7686L3.203 9.29412C3.24541 9.04059 3.15988 8.78283 2.97372 8.60275L0.37826 6.13105C0.161194 5.92414 0.0857233 5.61341 0.184913 5.33305C0.281227 5.05339 0.527045 4.8493 0.823894 4.8034L4.39615 4.29423C4.66785 4.26669 4.90648 4.10426 5.02867 3.86415L6.60276 0.693318C6.64013 0.622698 6.68829 0.557727 6.74651 0.502644L6.8112 0.45321C6.84498 0.416487 6.8838 0.386121 6.92692 0.361404L7.00527 0.333156L7.12746 0.283722H7.43006C7.70031 0.311264 7.93822 0.470159 8.06257 0.707442L9.65751 3.86415C9.77251 4.09508 9.99605 4.25539 10.2541 4.29423L13.8263 4.8034C14.1282 4.84577 14.3805 5.05057 14.4804 5.33305C14.5746 5.61623 14.4934 5.92696 14.272 6.13105L11.5838 8.631Z" fill="#FFD66B"/>
</svg>
