<svg width="92" height="92" viewBox="0 0 92 92" fill="none" xmlns="http://www.w3.org/2000/svg">
<rect opacity="0.1" x="0.408203" y="0.408234" width="90.8748" height="90.8748" rx="45.4374" fill="#605BFF"/>
<path fill-rule="evenodd" clip-rule="evenodd" d="M44.6213 33.2025C43.6493 33.2025 42.8224 33.878 42.5903 34.7883H50.3952C50.1631 33.878 49.3362 33.2025 48.3642 33.2025H44.6213ZM52.6003 34.7883H55.4727C58.5193 34.7883 61 37.2992 61 40.3827C61 40.3827 60.913 41.6881 60.8839 43.5059C60.881 43.6498 60.8114 43.7908 60.6968 43.8759C59.999 44.3913 59.3607 44.8171 59.3027 44.8465C56.8944 46.4617 54.096 47.5982 51.1148 48.1635C50.9204 48.2017 50.7289 48.1004 50.6302 47.9271C49.7946 46.4793 48.2336 45.5366 46.4927 45.5366C44.7635 45.5366 43.188 46.469 42.3277 47.9183C42.2276 48.0886 42.039 48.187 41.8461 48.1503C38.8895 47.5835 36.091 46.4485 33.6973 44.8612L32.3047 43.8921C32.1886 43.8187 32.1161 43.6865 32.1161 43.5397C32.0725 42.7908 32 40.3827 32 40.3827C32 37.2992 34.4807 34.7883 37.5273 34.7883H40.3852C40.6608 32.6592 42.4452 31 44.6213 31H48.3642C50.5403 31 52.3247 32.6592 52.6003 34.7883ZM60.5067 46.6821L60.4487 46.7115C57.5182 48.6791 53.993 49.9859 50.2936 50.5292C49.7714 50.6026 49.2491 50.2649 49.104 49.7363C48.7849 48.5322 47.7549 47.7393 46.5217 47.7393H46.5072H46.4782C45.2451 47.7393 44.2151 48.5322 43.8959 49.7363C43.7509 50.2649 43.2286 50.6026 42.7063 50.5292C39.007 49.9859 35.4817 48.6791 32.5513 46.7115C32.5367 46.6968 32.3917 46.6087 32.2756 46.6821C32.1451 46.7555 32.1451 46.9317 32.1451 46.9317L32.2466 54.4203C32.2466 57.5038 34.7128 60 37.7594 60H55.2261C58.2726 60 60.7389 57.5038 60.7389 54.4203L60.8549 46.9317C60.8549 46.9317 60.8549 46.7555 60.7243 46.6821C60.6518 46.6381 60.5648 46.6527 60.5067 46.6821ZM47.5808 52.8345C47.5808 53.4512 47.102 53.9358 46.4927 53.9358C45.8979 53.9358 45.4047 53.4512 45.4047 52.8345V50.9403C45.4047 50.3383 45.8979 49.8391 46.4927 49.8391C47.102 49.8391 47.5808 50.3383 47.5808 50.9403V52.8345Z" fill="#605BFF"/>
</svg>
