<svg width="30" height="22" viewBox="0 0 30 22" fill="none" xmlns="http://www.w3.org/2000/svg">
<path d="M29.157 12.1555C28.9582 12.3048 28.7082 12.369 28.462 12.334C28.2159 12.299 27.9937 12.1677 27.8444 11.9689C27.2791 11.2094 26.5435 10.5931 25.6967 10.1697C24.8499 9.74635 23.9155 9.52767 22.9688 9.53128C22.7201 9.53128 22.4817 9.43251 22.3059 9.25669C22.13 9.08088 22.0313 8.84242 22.0313 8.59378C22.0313 8.34514 22.13 8.10669 22.3059 7.93087C22.4817 7.75505 22.7201 7.65628 22.9688 7.65628C23.5024 7.65614 24.0249 7.50422 24.4754 7.21824C24.9259 6.93227 25.2857 6.52405 25.5129 6.04124C25.7401 5.55843 25.8252 5.02096 25.7584 4.49157C25.6916 3.96218 25.4755 3.46273 25.1355 3.05152C24.7955 2.6403 24.3455 2.3343 23.8381 2.16924C23.3307 2.00417 22.7868 1.98686 22.2699 2.11931C21.753 2.25177 21.2844 2.52853 20.9189 2.91728C20.5534 3.30603 20.3061 3.79073 20.2057 4.3148C20.1593 4.55907 20.0178 4.77491 19.8122 4.91482C19.6067 5.05474 19.354 5.10728 19.1097 5.06087C18.8655 5.01447 18.6496 4.87293 18.5097 4.66739C18.3698 4.46185 18.3172 4.20915 18.3637 3.96488C18.5024 3.23533 18.8124 2.54917 19.2683 1.96294C19.7242 1.37672 20.3128 0.907187 20.9857 0.59304C21.6586 0.278894 22.3965 0.129118 23.1387 0.156054C23.8808 0.182989 24.6059 0.385864 25.2543 0.747965C25.9026 1.11007 26.4557 1.62103 26.8679 2.23877C27.28 2.8565 27.5395 3.56333 27.625 4.30101C27.7105 5.0387 27.6194 5.78613 27.3594 6.48175C27.0994 7.17736 26.6778 7.80124 26.1294 8.30199C27.4044 8.85344 28.5126 9.72946 29.3434 10.8427C29.4174 10.9412 29.4712 11.0532 29.5019 11.1724C29.5326 11.2917 29.5394 11.4158 29.5221 11.5377C29.5048 11.6596 29.4637 11.7769 29.4011 11.8829C29.3384 11.9889 29.2555 12.0815 29.1571 12.1555H29.157ZM22.5886 19.9017C22.6438 20.0125 22.6764 20.1331 22.6847 20.2566C22.693 20.3801 22.6768 20.504 22.637 20.6212C22.5971 20.7384 22.5345 20.8465 22.4526 20.9394C22.3708 21.0322 22.2714 21.108 22.1601 21.1622C22.0489 21.2164 21.928 21.2481 21.8044 21.2554C21.6808 21.2626 21.5571 21.2454 21.4402 21.2045C21.3233 21.1637 21.2157 21.1002 21.1236 21.0175C21.0314 20.9349 20.9565 20.8349 20.9032 20.7232C20.3644 19.6162 19.5251 18.683 18.4813 18.0302C17.4375 17.3774 16.2312 17.0312 15 17.0312C13.7689 17.0312 12.5625 17.3774 11.5187 18.0302C10.4749 18.683 9.63565 19.6162 9.09681 20.7232C8.98788 20.9467 8.79461 21.1178 8.55954 21.1988C8.32446 21.2798 8.06683 21.2641 7.84332 21.1552C7.6198 21.0462 7.44872 20.853 7.3677 20.6179C7.28669 20.3828 7.30237 20.1252 7.41131 19.9017C8.27874 18.105 9.75743 16.6758 11.5826 15.87C10.6485 15.1555 9.9618 14.1661 9.61911 13.0411C9.27643 11.9161 9.29498 10.712 9.67215 9.59808C10.0493 8.48416 10.7661 7.51647 11.7218 6.83108C12.6775 6.14569 13.824 5.77709 15 5.77709C16.1761 5.77709 17.3225 6.14569 18.2782 6.83108C19.2339 7.51647 19.9507 8.48416 20.3279 9.59808C20.7051 10.712 20.7236 11.9161 20.3809 13.0411C20.0382 14.1661 19.3516 15.1555 18.4174 15.87C20.2426 16.6757 21.7213 18.105 22.5887 19.9017H22.5886ZM15 15.1563C15.7417 15.1563 16.4667 14.9363 17.0834 14.5243C17.7001 14.1122 18.1807 13.5266 18.4646 12.8413C18.7484 12.1561 18.8227 11.4021 18.678 10.6747C18.5333 9.94726 18.1761 9.27908 17.6517 8.75463C17.1272 8.23018 16.459 7.87303 15.7316 7.72834C15.0042 7.58364 14.2502 7.65791 13.565 7.94173C12.8797 8.22556 12.2941 8.70621 11.882 9.32289C11.47 9.93958 11.25 10.6646 11.25 11.4063C11.2511 12.4005 11.6466 13.3537 12.3496 14.0567C13.0526 14.7597 14.0058 15.1552 15 15.1563ZM7.96877 8.59378C7.96877 8.34514 7.86999 8.10669 7.69418 7.93087C7.51836 7.75505 7.27991 7.65628 7.03127 7.65628C6.49769 7.65614 5.97515 7.50421 5.52468 7.21824C5.0742 6.93227 4.71437 6.52405 4.48719 6.04125C4.26001 5.55845 4.17485 5.02098 4.24167 4.4916C4.30848 3.96222 4.52451 3.46277 4.86453 3.05155C5.20454 2.64034 5.65452 2.33433 6.16193 2.16926C6.66933 2.00418 7.21322 1.98685 7.73011 2.11929C8.24699 2.25173 8.71554 2.52847 9.08104 2.91721C9.44655 3.30594 9.69393 3.79063 9.79431 4.31468C9.84315 4.55656 9.98539 4.76943 10.1902 4.90712C10.3949 5.0448 10.6458 5.0962 10.8882 5.05016C11.1306 5.00412 11.3451 4.86436 11.4852 4.66119C11.6252 4.45802 11.6795 4.20782 11.6363 3.96488C11.4976 3.23529 11.1875 2.5491 10.7317 1.96283C10.2758 1.37656 9.68716 0.906998 9.01424 0.592825C8.34132 0.278651 7.60338 0.128861 6.86122 0.155794C6.11906 0.182727 5.39392 0.385613 4.74555 0.747736C4.09717 1.10986 3.54411 1.62085 3.13194 2.23862C2.71976 2.85639 2.46027 3.56326 2.37484 4.30097C2.28941 5.03869 2.38048 5.78615 2.64056 6.48177C2.90063 7.17739 3.32226 7.80126 3.87072 8.30199C2.59561 8.85344 1.48737 9.72956 0.656501 10.843C0.582555 10.9414 0.528723 11.0534 0.498076 11.1727C0.46743 11.2919 0.46057 11.416 0.477889 11.5379C0.512865 11.7841 0.644201 12.0063 0.843005 12.1556C1.04181 12.305 1.29179 12.3692 1.53797 12.3342C1.78414 12.2993 2.00634 12.1679 2.15568 11.9691C2.72084 11.2095 3.45644 10.5932 4.30326 10.1698C5.15009 9.74638 6.08449 9.52767 7.03127 9.53128C7.27991 9.53128 7.51836 9.43251 7.69418 9.25669C7.86999 9.08088 7.96877 8.84242 7.96877 8.59378Z" fill="#FFC121"/>
</svg>
